# xmcd CD database file
#
# Track frame offsets:
#	150
#	10553
#	27274
#	49625
#	60721
#	83737
#	94031
#	111190
#	133118
#	152584
#	167343
#	184639
#	207641
#	231328
#	245149
#	272127
#	287236
#	306665
#	328309
#	343327
#
# Disc length: 4765 seconds
#
# Revision: 1
# Processed by: cddbd v1.5.1PL2 Copyright (c) Steve Scherf et al.
# Submitted via: CDex 1.51
#
DISCID=28129b14
DTITLE=Various Artist - Jazz Top 100 Allertijden - CD2
DYEAR=1900
DGENRE=Jazz
TTITLE0=Louis Armstrong - What a wonderful world
TTITLE1=Marvin Gay - Unforgettable
TTITLE2=Laura Figi - The lady wants to know
TTITLE3=Count Basie - All of me
TTITLE4=Aaron Neville - Since I fell for you
TTITLE5=Antonio Carlos Jobim - Samba de una nota so
TTITLE6=Carmen McRea - When I fall in love
TTITLE7=Wes Montgomery - What the world needs now is love
TTITLE8=Chrsitian McBride - Lullaby for a ladybug
TTITLE9=Dee Dee Bridgewater - What is this thing called love?
TTITLE10=Mary Haskell - There is no greater love
TTITLE11=Ronny Jordan - So what!
TTITLE12=Helen Merrill - As time goes by
TTITLE13=Charlie Parker - Parker's mood
TTITLE14=Claudia Acuna - Nature boy
TTITLE15=Abbey Lincoln - How high the moon
TTITLE16=Johnny Hartman - These foolish things
TTITLE17=Matt Bianca - I never meant to
TTITLE18=Coleman Hawkins Quartet - Night and day
TTITLE19=George Shearing - East of the sun
EXTD=
EXTT0=
EXTT1=
EXTT2=
EXTT3=
EXTT4=
EXTT5=
EXTT6=
EXTT7=
EXTT8=
EXTT9=
EXTT10=
EXTT11=
EXTT12=
EXTT13=
EXTT14=
EXTT15=
EXTT16=
EXTT17=
EXTT18=
EXTT19=
PLAYORDER=
